<svg xmlns="http://www.w3.org/2000/svg" width="196" height="21" viewBox="0 0 196 21" fill="none"><path d="M0 10.5C0 8.73729 0.372429 7.15254 1.11729 5.74576C1.86214 4.32203 2.89282 3.21186 4.20931 2.41525C5.54312 1.61864 7.03284 1.22034 8.67845 1.22034C9.89101 1.22034 10.8697 1.38136 11.6146 1.70339C12.3768 2.00847 13.0956 2.40678 13.7712 2.8983C14.135 3.13559 14.3948 3.27966 14.5507 3.33051L13.6413 1.14407L13.6932 0.991525H14.4208L16.2396 8.16102L15.8759 8.26271C15.4948 7.22881 14.8885 6.20339 14.057 5.18644C13.2255 4.16949 12.2901 3.33898 11.2508 2.69492C10.2288 2.0339 9.26741 1.70339 8.36665 1.70339C7.25803 1.70339 6.24468 2.08475 5.3266 2.84746C4.40852 3.59322 3.68098 4.63559 3.14399 5.97458C2.62432 7.31356 2.36449 8.82203 2.36449 10.5C2.36449 12.178 2.63298 13.6864 3.16997 15.0254C3.70696 16.3644 4.44316 17.4153 5.37856 18.178C6.33129 18.9237 7.38794 19.2966 8.54853 19.2966C9.48394 19.2966 10.506 18.9407 11.6146 18.2288C12.7405 17.5169 13.7539 16.6186 14.6546 15.5339C15.5554 14.4492 16.1703 13.3729 16.4995 12.3051L16.8632 12.4322L14.7586 20.0085H14.031L13.9791 19.8559L15.0704 17.3136C14.9318 17.3305 14.7759 17.3898 14.6027 17.4915C14.4468 17.5932 14.2649 17.7288 14.057 17.8983C13.6066 18.2373 13.1649 18.5424 12.7319 18.8136C12.2988 19.0678 11.7358 19.2881 11.0429 19.4746C10.3674 19.678 9.57921 19.7797 8.67845 19.7797C7.03284 19.7797 5.54312 19.3814 4.20931 18.5847C2.89282 17.7881 1.86214 16.6864 1.11729 15.2797C0.372429 13.8559 0 12.2627 0 10.5Z" fill="#8F8D83"></path><path d="M34.0908 20.9746L35.0782 19.3983H24.1392V19.1441C24.2258 17.9915 24.2691 16.6356 24.2691 15.0763V1.95763C24.0439 1.95763 23.6715 2 23.1518 2.08474C22.6321 2.16949 22.1731 2.25424 21.7747 2.33898L21.6708 2.18644L22.2684 1.60169H33.4412L32.4279 0.0254234V0H33.2334L34.7664 4.5L34.5066 4.62712L34.4806 4.57627C34.2554 4.15254 33.8223 3.74576 33.1814 3.35593C32.5578 2.94915 31.7263 2.61864 30.687 2.36441C29.6477 2.11017 28.4264 1.98305 27.0233 1.98305H26.5037V10.2458H30.0634C30.098 10.2458 30.1154 10.2288 30.1154 10.1949V8.13559H31.5444L30.4272 13.1949H30.1154V10.8051C30.1154 10.7712 30.098 10.7542 30.0634 10.7542H26.5037V19.017H27.1792C29.05 19.017 30.609 18.8729 31.8562 18.5847C33.1208 18.2966 34.0908 17.9322 34.7664 17.4915C35.4593 17.0508 35.9356 16.6017 36.1955 16.1441L36.2215 16.0932V16.0424L36.4813 16.1695L34.8703 21H34.0908V20.9746Z" fill="#8F8D83"></path><path d="M42.8756 19.1441C42.9623 17.9915 43.0056 16.6356 43.0056 15.0763V1.95763C42.7804 1.95763 42.4079 2 41.8883 2.08474C41.3686 2.16949 40.9096 2.25424 40.5112 2.33898L40.4072 2.18644L41.0048 1.60169H47.1889C48.7306 1.60169 50.073 1.79661 51.2163 2.18644C52.3769 2.57627 53.2603 3.13559 53.8666 3.86441C54.4902 4.59322 54.802 5.44068 54.802 6.40678C54.802 7.45763 54.4123 8.35593 53.6328 9.10169C52.8533 9.83051 51.762 10.3559 50.3589 10.678L53.5808 14.6695C54.343 15.6525 55.0099 16.4915 55.5815 17.1864C56.1705 17.8814 56.7508 18.5339 57.3224 19.1441V19.3983H52.2816L51.684 18.7881L51.7879 18.6356C52.1864 18.7203 52.6454 18.8136 53.1651 18.9153C53.6847 19 54.0572 19.0424 54.2823 19.0424L48.2282 11.1864C48.0377 11.2034 47.8385 11.2203 47.6306 11.2373C47.4401 11.2542 47.2495 11.2627 47.059 11.2627H45.2401V15.0763C45.2401 16.3814 45.2834 17.7373 45.37 19.1441V19.3983H42.8756V19.1441ZM47.059 10.7797C48.8432 10.7797 50.2116 10.3898 51.1643 9.61017C52.1344 8.83051 52.6194 7.76271 52.6194 6.40678C52.6194 5.0678 52.1171 4.00847 51.1124 3.22881C50.125 2.4322 48.7739 2.0339 47.059 2.0339H45.2401V10.7797H47.059Z" fill="#8F8D83"></path><path d="M60.1725 19.1186C60.6748 18.2881 61.3244 17.0678 62.1212 15.4576C62.918 13.8305 63.5503 12.4492 64.018 11.3136L67.3699 3.50847C67.0234 3.0678 66.651 2.71186 66.2526 2.44068C65.8715 2.16949 65.4471 2.00847 64.9794 1.95763C64.9447 1.94068 64.9101 1.9322 64.8755 1.9322C64.8408 1.9322 64.8062 1.9322 64.7715 1.9322L64.9274 1.60169H69.2666C69.8556 3.07627 70.4792 4.54237 71.1374 6L75.4507 15.4576C75.9011 16.4407 76.516 17.6695 77.2955 19.1441V19.3983H72.6445L72.0469 18.7881L72.1508 18.6356C72.5492 18.7203 73.0082 18.8136 73.5279 18.9153C74.0476 19 74.42 19.0424 74.6452 19.0424L72.2028 13.5508H63.6282C63.4723 13.9576 63.2385 14.5593 62.9267 15.3559C62.3204 16.9153 61.9047 18.1441 61.6795 19.0424C61.9047 19.0424 62.2771 19 62.7968 18.9153C63.3164 18.8136 63.7755 18.7203 64.1739 18.6356L64.2778 18.7881L63.6802 19.3983H60.1725V19.1186ZM71.9949 13.0678L68.721 5.77119C68.5824 5.48305 68.4265 5.17797 68.2533 4.85593C68.0801 4.5339 67.8982 4.22881 67.7076 3.94068L63.8361 13.0678H71.9949Z" fill="#8F8D83"></path><path d="M108.08 19.7797C106.954 19.7797 105.88 19.6102 104.858 19.2712C103.836 18.9153 102.814 18.4915 101.792 18C101.636 17.8983 101.497 17.8051 101.376 17.7203C101.272 17.6356 101.168 17.5593 101.064 17.4915L102.051 20.1356L101.973 20.2627H101.35L99.3231 12.4831L99.6869 12.3814L99.9987 13.2458C100.31 14.1271 100.986 15.0339 102.025 15.9661C103.065 16.8814 104.225 17.6525 105.507 18.2797C106.806 18.8898 107.941 19.1949 108.911 19.1949C110.02 19.1949 110.946 18.9322 111.691 18.4068C112.436 17.8814 112.809 17.1441 112.809 16.1949C112.809 15.5339 112.566 14.9576 112.081 14.4661C111.596 13.9576 110.981 13.5424 110.236 13.2203C109.509 12.8814 108.599 12.5339 107.508 12.178L107.066 12.0254C105.646 11.5508 104.476 11.0847 103.558 10.6271C102.64 10.1695 101.852 9.55085 101.194 8.77119C100.553 7.97458 100.233 6.98305 100.233 5.79661C100.233 4.83051 100.475 4.00847 100.96 3.33051C101.445 2.63559 102.086 2.11017 102.883 1.75424C103.697 1.3983 104.589 1.22034 105.559 1.22034C106.321 1.22034 107.023 1.30508 107.664 1.47458C108.322 1.64407 108.876 1.84746 109.327 2.08474C109.777 2.30508 110.253 2.5678 110.756 2.87288C111.293 3.14407 111.613 3.29661 111.717 3.33051L110.808 1.14407L110.834 0.991525H111.535L113.328 7.72881L112.964 7.80508L112.886 7.62712C112.436 6.52542 111.717 5.54237 110.73 4.67797C109.76 3.81356 108.703 3.14407 107.56 2.66949C106.434 2.17797 105.464 1.9322 104.65 1.9322C103.645 1.9322 102.814 2.18644 102.155 2.69492C101.497 3.20339 101.168 3.9322 101.168 4.88136C101.168 5.61017 101.428 6.24576 101.947 6.78813C102.467 7.31356 103.099 7.74576 103.844 8.08474C104.606 8.42373 105.55 8.77966 106.676 9.15254L106.728 9.17797C108.253 9.68644 109.483 10.161 110.418 10.6017C111.371 11.0424 112.185 11.6356 112.86 12.3814C113.536 13.1271 113.874 14.0339 113.874 15.1017C113.874 16.1525 113.623 17.0254 113.12 17.7203C112.618 18.4153 111.925 18.9322 111.042 19.2712C110.176 19.6102 109.188 19.7797 108.08 19.7797Z" fill="#8F8D83"></path><path d="M133.593 4.88136L133.567 4.85593C133.36 4.4661 132.926 4.05085 132.268 3.61017C131.61 3.15254 130.796 2.76271 129.826 2.44068C128.856 2.11864 127.834 1.95763 126.76 1.95763H126.526V19.0424C126.751 19.0424 127.124 19 127.643 18.9153C128.163 18.8136 128.622 18.7203 129.02 18.6356L129.124 18.7881L128.527 19.3983H124.161V19.1441C124.231 17.9915 124.265 16.6356 124.265 15.0763V1.95763H124.031C122.94 1.95763 121.91 2.11017 120.939 2.41525C119.969 2.72034 119.164 3.09322 118.523 3.5339C117.882 3.97458 117.458 4.38136 117.25 4.75424L117.224 4.80509L116.964 4.67797L118.601 0H119.38V0.0254234L118.367 1.60169H132.424L131.411 0.0254234L131.437 0H132.216L133.853 4.75424L133.593 4.88136Z" fill="#8F8D83"></path><path d="M146.711 19.7797C144.944 19.7797 143.342 19.3814 141.904 18.5847C140.484 17.7881 139.367 16.6864 138.553 15.2797C137.738 13.8559 137.331 12.2627 137.331 10.5C137.331 8.73729 137.738 7.15254 138.553 5.74576C139.367 4.32203 140.484 3.21186 141.904 2.41525C143.342 1.61864 144.944 1.22034 146.711 1.22034C148.496 1.22034 150.098 1.61864 151.518 2.41525C152.956 3.21186 154.082 4.32203 154.896 5.74576C155.71 7.15254 156.117 8.73729 156.117 10.5C156.117 12.2627 155.71 13.8559 154.896 15.2797C154.082 16.6864 152.956 17.7881 151.518 18.5847C150.098 19.3814 148.496 19.7797 146.711 19.7797ZM146.711 19.2966C148.045 19.2966 149.24 18.9153 150.297 18.1525C151.371 17.3898 152.211 16.3475 152.817 15.0254C153.424 13.6864 153.727 12.178 153.727 10.5C153.727 8.82203 153.424 7.32203 152.817 6C152.211 4.66102 151.371 3.61017 150.297 2.84746C149.24 2.08475 148.045 1.70339 146.711 1.70339C145.395 1.70339 144.2 2.08475 143.126 2.84746C142.069 3.61017 141.229 4.66102 140.605 6C139.999 7.32203 139.696 8.82203 139.696 10.5C139.696 12.178 139.999 13.6864 140.605 15.0254C141.229 16.3475 142.069 17.3898 143.126 18.1525C144.2 18.9153 145.395 19.2966 146.711 19.2966Z" fill="#8F8D83"></path><path d="M163.399 19.1441C163.486 17.9915 163.529 16.6356 163.529 15.0763V1.95763C163.304 1.95763 162.931 2 162.412 2.08474C161.892 2.16949 161.433 2.25424 161.034 2.33898L160.931 2.18644L161.528 1.60169H167.712C169.254 1.60169 170.596 1.79661 171.74 2.18644C172.9 2.57627 173.784 3.13559 174.39 3.86441C175.014 4.59322 175.325 5.44068 175.325 6.40678C175.325 7.45763 174.936 8.35593 174.156 9.10169C173.377 9.83051 172.285 10.3559 170.882 10.678L174.104 14.6695C174.866 15.6525 175.533 16.4915 176.105 17.1864C176.694 17.8814 177.274 18.5339 177.846 19.1441V19.3983H172.805L172.207 18.7881L172.311 18.6356C172.71 18.7203 173.169 18.8136 173.688 18.9153C174.208 19 174.58 19.0424 174.806 19.0424L168.752 11.1864C168.561 11.2034 168.362 11.2203 168.154 11.2373C167.963 11.2542 167.773 11.2627 167.582 11.2627H165.763V15.0763C165.763 16.3814 165.807 17.7373 165.893 19.1441V19.3983H163.399V19.1441ZM167.582 10.7797C169.366 10.7797 170.735 10.3898 171.688 9.61017C172.658 8.83051 173.143 7.76271 173.143 6.40678C173.143 5.0678 172.64 4.00847 171.636 3.22881C170.648 2.4322 169.297 2.0339 167.582 2.0339H165.763V10.7797H167.582Z" fill="#8F8D83"></path><path d="M193.61 20.9746L194.597 19.3983H183.658V19.1441C183.745 17.9915 183.788 16.6356 183.788 15.0763V1.95763C183.563 1.95763 183.19 2 182.671 2.08474C182.151 2.16949 181.692 2.25424 181.293 2.33898L181.189 2.18644L181.787 1.60169H192.96L191.947 0.0254234V0H192.752L194.285 4.5L194.025 4.62712L193.999 4.57627C193.774 4.15254 193.341 3.74576 192.7 3.35593C192.077 2.94915 191.245 2.61864 190.206 2.36441C189.166 2.11017 187.945 1.98305 186.542 1.98305H186.022V10.2458H189.582C189.617 10.2458 189.634 10.2288 189.634 10.1949V8.13559H191.063L189.946 13.1949H189.634V10.8051C189.634 10.7712 189.617 10.7542 189.582 10.7542H186.022V19.017H186.698C188.569 19.017 190.128 18.8729 191.375 18.5847C192.639 18.2966 193.61 17.9322 194.285 17.4915C194.978 17.0508 195.454 16.6017 195.714 16.1441L195.74 16.0932V16.0424L196 16.1695L194.389 21H193.61V20.9746Z" fill="#8F8D83"></path></svg>